<?xml version="1.0" standalone="no"?>
<!DOCTYPE svg PUBLIC "-//W3C//DTD SVG 20010904//EN"
 "http://www.w3.org/TR/2001/REC-SVG-20010904/DTD/svg10.dtd">
<svg version="1.0" xmlns="http://www.w3.org/2000/svg"
 width="377.000000pt" height="301.000000pt" viewBox="0 0 377.000000 301.000000"
 preserveAspectRatio="xMidYMid meet">

<g transform="translate(0.000000,301.000000) scale(0.100000,-0.100000)"
fill="#000000" stroke="none">
<path d="M1247 2385 c-308 -177 -572 -332 -588 -344 -22 -17 -29 -30 -29 -56
0 -35 28 -65 59 -65 8 0 64 29 125 64 61 35 224 129 361 209 138 79 336 194
442 255 l191 110 409 -235 c748 -432 698 -405 727 -397 45 11 63 76 29 106
-16 14 -193 117 -987 575 -99 57 -180 103 -180 102 -1 0 -252 -146 -559 -324z"/>
<path d="M1395 2223 c-15 -54 -27 -77 -61 -110 -58 -58 -91 -107 -162 -248
-41 -81 -81 -143 -122 -189 -34 -38 -73 -87 -88 -109 l-27 -41 -5 96 c-6 116
-15 130 -79 126 -39 -3 -49 -8 -67 -36 -33 -49 -47 -155 -41 -311 6 -161 32
-263 104 -410 156 -316 469 -550 792 -590 46 -6 88 -8 94 -4 14 9 1 263 -18
342 -21 86 -70 175 -119 217 -23 20 -95 62 -161 94 -155 74 -197 116 -234 233
-31 93 -133 67 -115 -30 4 -21 15 -60 25 -86 24 -61 24 -64 -2 -41 -50 44 -85
171 -63 229 8 21 56 45 91 45 40 0 91 -34 107 -72 8 -18 22 -53 32 -76 34 -82
148 -151 180 -108 13 19 13 30 -17 200 -49 285 -6 362 213 381 111 9 116 11
148 62 44 69 40 85 -27 127 -31 20 -72 41 -90 47 -18 6 -33 15 -33 20 0 5 -16
27 -36 49 -24 26 -46 68 -64 121 -33 93 -43 108 -64 90 -11 -10 -18 -6 -36 19
-12 16 -25 30 -29 30 -5 0 -16 -30 -26 -67z"/>
<path d="M2190 1987 l0 -72 -35 -19 c-19 -11 -47 -35 -62 -54 -15 -20 -46 -57
-69 -83 l-43 -48 16 -46 c17 -51 29 -60 102 -76 81 -17 90 -59 42 -202 -38
-111 -45 -163 -32 -215 16 -57 40 -69 99 -47 60 23 114 74 136 127 10 24 24
58 32 76 16 38 67 72 107 72 35 0 83 -24 91 -45 22 -58 -13 -185 -63 -229 -26
-23 -26 -20 -2 41 10 26 21 65 25 86 18 97 -85 123 -114 30 -21 -65 -62 -132
-97 -159 -19 -14 -80 -47 -136 -74 -133 -62 -194 -111 -235 -187 -47 -89 -64
-176 -66 -333 l-1 -135 70 4 c145 7 341 84 484 191 194 145 335 347 408 585
25 83 27 103 27 270 1 189 -10 251 -52 288 -30 27 -83 26 -112 -3 -17 -17 -20
-33 -20 -104 0 -94 -17 -236 -30 -249 -11 -12 -88 86 -118 151 -19 42 -26 79
-32 170 -4 64 -13 130 -19 146 -7 16 -40 57 -74 90 -34 34 -70 76 -79 94 -23
43 -38 40 -38 -8 0 -22 -4 -40 -8 -40 -4 0 -26 18 -47 40 -21 22 -43 40 -47
40 -4 0 -8 -33 -8 -73z"/>
<path d="M1676 1480 c-66 -20 -108 -99 -86 -164 6 -20 48 -70 105 -126 85 -83
97 -92 122 -86 31 8 176 145 199 188 58 111 -59 235 -170 179 -33 -17 -41 -18
-60 -6 -30 19 -76 25 -110 15z"/>
</g>
</svg>
